<svg width="146" height="65" viewBox="0 0 146 65" fill="none" xmlns="http://www.w3.org/2000/svg" style="">
<path d="M1 1L11.4121 59.8191C13.1269 63.6906 17.1042 68.535 19.2952 56.9411C20.0255 56.9411 21.6535 27.6522 22.3762 13.0078C23.213 5.28615 26.393 -6.02622 32.4181 10.4973L39.379 59.1093C40.9005 61.9241 44.3771 65.5909 46.1116 57.7399L50.1056 10.4973C51.6651 6.16101 55.6743 0.295622 59.2346 11.5243L62.7721 57.7399C64.1414 61.848 67.6789 67.5993 70.8741 57.7399C70.8741 57.1009 74.2975 26.6633 76.0092 11.5243C77.3405 6.50335 80.916 -0.525989 84.5676 11.5243C85.6707 26.9295 88.0138 57.7399 88.5616 57.7399C89.2462 57.7399 92.8978 70.0641 97.3482 57.7399L99.174 11.5243C100.81 5.134 105.427 -3.81243 110.814 11.5243L112.297 57.7399C113.058 62.913 115.926 69.7902 121.312 55.9141L126.219 14.8336C128.007 7.07391 132.86 -3.78961 137.972 14.8336L145.047 63.2173" stroke="black" stroke-width="1.47581" class="pbvsVFoK_0"></path>
<style data-made-with="vivus-instant">.pbvsVFoK_0{stroke-dasharray:698 700;stroke-dashoffset:699;animation:pbvsVFoK_draw_0 3000ms linear 0ms infinite,pbvsVFoK_fade 3000ms linear 0ms infinite;}@keyframes pbvsVFoK_draw{100%{stroke-dashoffset:0;}}@keyframes pbvsVFoK_fade{0%{stroke-opacity:1;}100%{stroke-opacity:1;}100%{stroke-opacity:0;}}@keyframes pbvsVFoK_draw_0{0%{stroke-dashoffset: 699}66.66666666666666%{ stroke-dashoffset: 0;}100%{ stroke-dashoffset: 0;}}</style></svg>
