<svg width="197" height="66" viewBox="0 0 197 66" fill="none" xmlns="http://www.w3.org/2000/svg" style="">
<path d="M1.19531 1.12402L15.2895 59.9431C17.6107 63.8146 22.9945 68.659 25.9603 57.0652C26.9489 57.0652 29.1526 27.7763 30.1309 13.1318C31.2636 5.41017 35.5681 -5.9022 43.724 10.6213L53.1464 59.2333C55.206 62.0481 59.9121 65.7149 62.26 57.864L67.6663 10.6213C69.7774 6.28504 75.2043 0.419645 80.0237 11.6483L84.8122 57.864C86.6658 61.972 91.4542 67.7233 95.7793 57.864C95.7793 57.2249 100.413 26.7873 102.73 11.6483C104.532 6.62737 109.372 -0.401965 114.315 11.6483C115.809 27.0535 118.98 57.864 119.722 57.864C120.648 57.864 125.591 70.1881 131.616 57.864L134.087 11.6483C136.301 5.25802 142.552 -3.68841 149.843 11.6483L151.851 57.864C152.881 63.0371 156.763 69.9143 164.054 56.0382L170.696 14.9576C173.116 7.19794 179.686 -3.66559 186.606 14.9576L196.183 63.3414" stroke="black" stroke-width="1.47581" class="wrlMYcgh_0"></path>
<style data-made-with="vivus-instant">.wrlMYcgh_0{stroke-dasharray:722 724;stroke-dashoffset:723;animation:wrlMYcgh_draw_0 3000ms linear 0ms infinite,wrlMYcgh_fade 3000ms linear 0ms infinite;}@keyframes wrlMYcgh_draw{100%{stroke-dashoffset:0;}}@keyframes wrlMYcgh_fade{0%{stroke-opacity:1;}100%{stroke-opacity:1;}100%{stroke-opacity:0;}}@keyframes wrlMYcgh_draw_0{0%{stroke-dashoffset: 723}66.66666666666666%{ stroke-dashoffset: 0;}100%{ stroke-dashoffset: 0;}}</style></svg>
