<svg width="24" height="28" viewBox="0 0 24 28" fill="none" xmlns="http://www.w3.org/2000/svg" style="">
<path d="M0 1C4.24242 1 4.24241 5.84849 8.48483 5.84849C12.7273 5.84849 12.7182 1 16.9606 1C21.203 1 21.203 5.84849 25.4455 5.84849C29.6879 5.84849 29.6879 1 33.9303 1C38.1728 1 38.1728 5.84849 42.4152 5.84849C46.6576 5.84849 46.6576 1 50.9 1C55.1424 1 55.1424 5.84849 59.3848 5.84849C63.6273 5.84849 63.6273 1 67.8697 1C72.1122 1 72.1212 5.84849 76.3636 5.84849" stroke="black" stroke-width="0.539374" stroke-miterlimit="10" class="XhoGFCHb_0"></path>
<path d="M0 11.8486C4.24242 11.8486 4.24241 16.6971 8.48483 16.6971C12.7273 16.6971 12.7182 11.8486 16.9606 11.8486C21.203 11.8486 21.203 16.6971 25.4455 16.6971C29.6879 16.6971 29.6879 11.8486 33.9303 11.8486C38.1728 11.8486 38.1728 16.6971 42.4152 16.6971C46.6576 16.6971 46.6576 11.8486 50.9 11.8486C55.1424 11.8486 55.1424 16.6971 59.3848 16.6971C63.6273 16.6971 63.6273 11.8486 67.8697 11.8486C72.1122 11.8486 72.1212 16.6971 76.3636 16.6971" stroke="black" stroke-width="0.539374" stroke-miterlimit="10" class="XhoGFCHb_1"></path>
<path d="M0 22.6973C4.24242 22.6973 4.24241 26.9397 8.48483 26.9397C12.7273 26.9397 12.7182 22.6973 16.9606 22.6973C21.203 22.6973 21.203 26.9397 25.4455 26.9397C29.6879 26.9397 29.6879 22.6973 33.9303 22.6973C38.1728 22.6973 38.1728 26.9397 42.4152 26.9397C46.6576 26.9397 46.6576 22.6973 50.9 22.6973C55.1424 22.6973 55.1424 26.9397 59.3848 26.9397C63.6273 26.9397 63.6273 22.6973 67.8697 22.6973C72.1122 22.6973 72.1212 26.9397 76.3636 26.9397" stroke="black" stroke-width="0.539374" stroke-miterlimit="10" class="XhoGFCHb_2"></path>
<style data-made-with="vivus-instant">.XhoGFCHb_0{stroke-dasharray:92 94;stroke-dashoffset:93;animation:XhoGFCHb_draw_0 3000ms linear 0ms infinite,XhoGFCHb_fade 3000ms linear 0ms infinite;}.XhoGFCHb_1{stroke-dasharray:92 94;stroke-dashoffset:93;animation:XhoGFCHb_draw_1 3000ms linear 0ms infinite,XhoGFCHb_fade 3000ms linear 0ms infinite;}.XhoGFCHb_2{stroke-dasharray:89 91;stroke-dashoffset:90;animation:XhoGFCHb_draw_2 3000ms linear 0ms infinite,XhoGFCHb_fade 3000ms linear 0ms infinite;}@keyframes XhoGFCHb_draw{100%{stroke-dashoffset:0;}}@keyframes XhoGFCHb_fade{0%{stroke-opacity:1;}100%{stroke-opacity:1;}100%{stroke-opacity:0;}}@keyframes XhoGFCHb_draw_0{0%{stroke-dashoffset: 93}66.66666666666666%{ stroke-dashoffset: 0;}100%{ stroke-dashoffset: 0;}}@keyframes XhoGFCHb_draw_1{16.666666666666664%{stroke-dashoffset: 93}83.33333333333334%{ stroke-dashoffset: 0;}100%{ stroke-dashoffset: 0;}}@keyframes XhoGFCHb_draw_2{33.33333333333333%{stroke-dashoffset: 90}100%{ stroke-dashoffset: 0;}100%{ stroke-dashoffset: 0;}}</style></svg>
