<svg width="100" height="53" viewBox="0 0 100 53" fill="none" xmlns="http://www.w3.org/2000/svg" style="">
<path d="M-98.9102 0.660156C-87.9 0.660156 -87.9 13.2432 -76.8899 13.2432C-65.8797 13.2432 -65.9032 0.660156 -54.8931 0.660156C-43.8829 0.660156 -43.883 13.2432 -32.8728 13.2432C-21.8627 13.2432 -21.8625 0.660156 -10.8524 0.660156C0.157768 0.660156 0.157734 13.2432 11.1679 13.2432C22.178 13.2432 22.178 0.660156 33.1882 0.660156C44.1983 0.660156 44.1983 13.2432 55.2084 13.2432C66.2186 13.2432 66.2187 0.660156 77.2289 0.660156C88.239 0.660156 88.2625 13.2432 99.2727 13.2432" stroke="black" stroke-width="0.539374" stroke-miterlimit="10" class="UynvPUYn_0"></path>
<path d="M-98.9102 21.1074C-87.9 21.1074 -87.9 33.6905 -76.8899 33.6905C-65.8797 33.6905 -65.9032 21.1074 -54.8931 21.1074C-43.8829 21.1074 -43.883 33.6905 -32.8728 33.6905C-21.8627 33.6905 -21.8625 21.1074 -10.8524 21.1074C0.157768 21.1074 0.157734 33.6905 11.1679 33.6905C22.178 33.6905 22.178 21.1074 33.1882 21.1074C44.1983 21.1074 44.1983 33.6905 55.2084 33.6905C66.2186 33.6905 66.2187 21.1074 77.2289 21.1074C88.239 21.1074 88.2625 33.6905 99.2727 33.6905" stroke="black" stroke-width="0.539374" stroke-miterlimit="10" class="UynvPUYn_1"></path>
<path d="M-98.9102 41.5547C-87.9 41.5547 -87.9 52.5648 -76.8899 52.5648C-65.8797 52.5648 -65.9032 41.5547 -54.8931 41.5547C-43.8829 41.5547 -43.883 52.5648 -32.8728 52.5648C-21.8627 52.5648 -21.8625 41.5547 -10.8524 41.5547C0.157768 41.5547 0.157734 52.5648 11.1679 52.5648C22.178 52.5648 22.178 41.5547 33.1882 41.5547C44.1983 41.5547 44.1983 52.5648 55.2084 52.5648C66.2186 52.5648 66.2187 41.5547 77.2289 41.5547C88.239 41.5547 88.2625 52.5648 99.2727 52.5648" stroke="black" stroke-width="0.539374" stroke-miterlimit="10" class="UynvPUYn_2"></path>
<style data-made-with="vivus-instant">.UynvPUYn_0{stroke-dasharray:238 240;stroke-dashoffset:239;animation:UynvPUYn_draw 2000ms linear 0ms forwards;}.UynvPUYn_1{stroke-dasharray:238 240;stroke-dashoffset:239;animation:UynvPUYn_draw 2000ms linear 500ms forwards;}.UynvPUYn_2{stroke-dasharray:230 232;stroke-dashoffset:231;animation:UynvPUYn_draw 2000ms linear 1000ms forwards;}@keyframes UynvPUYn_draw{100%{stroke-dashoffset:0;}}@keyframes UynvPUYn_fade{0%{stroke-opacity:1;}94.44444444444444%{stroke-opacity:1;}100%{stroke-opacity:0;}}</style></svg>
