<svg width="223" height="65" viewBox="0 0 223 65" fill="none" xmlns="http://www.w3.org/2000/svg" style="">
<path d="M1.15234 1.03125L17.1223 59.8504C19.7525 63.7218 25.8529 68.5662 29.2133 56.9724C30.3335 56.9724 32.8305 27.6835 33.939 13.039C35.2226 5.3174 40.0999 -5.99497 49.3413 10.5285L60.0178 59.1405C62.3515 61.9553 67.6839 65.6221 70.3443 57.7712L76.4702 10.5285C78.8622 6.19226 85.0114 0.326872 90.4722 11.5556L95.898 57.7712C97.9983 61.8792 103.424 67.6305 108.325 57.7712C108.325 57.1322 113.576 26.6945 116.201 11.5556C118.243 6.5346 123.727 -0.494739 129.328 11.5556C131.02 26.9608 134.614 57.7712 135.454 57.7712C136.504 57.7712 142.105 70.0954 148.931 57.7712L151.731 11.5556C154.24 5.16525 161.322 -3.78118 169.584 11.5556L171.859 57.7712C173.026 62.9443 177.425 69.8215 185.686 55.9454L193.212 14.8648C195.954 7.10516 203.399 -3.75836 211.24 14.8648L222.091 63.2486" stroke="black" stroke-width="1.47581" class="pqmQmiGu_0"></path>
<style data-made-with="vivus-instant">.pqmQmiGu_0{stroke-dasharray:735 737;stroke-dashoffset:736;animation:pqmQmiGu_draw_0 6200ms linear 0ms infinite,pqmQmiGu_fade 6200ms linear 0ms infinite;}@keyframes pqmQmiGu_draw{100%{stroke-dashoffset:0;}}@keyframes pqmQmiGu_fade{0%{stroke-opacity:1;}93.54838709677419%{stroke-opacity:1;}100%{stroke-opacity:0;}}@keyframes pqmQmiGu_draw_0{12.903225806451612%{stroke-dashoffset: 736}61.29032258064516%{ stroke-dashoffset: 0;}100%{ stroke-dashoffset: 0;}}</style></svg>
