<svg width="110" height="53" viewBox="0 0 110 53" fill="none" xmlns="http://www.w3.org/2000/svg" style="">
<path d="M-88.7617 0.452148C-77.7516 0.452148 -77.7516 13.0352 -66.7414 13.0352C-55.7313 13.0352 -55.7548 0.452148 -44.7446 0.452148C-33.7345 0.452148 -33.7345 13.0352 -22.7244 13.0352C-11.7142 13.0352 -11.7141 0.452148 -0.70395 0.452148C10.3062 0.452148 10.3062 13.0352 21.3163 13.0352C32.3265 13.0352 32.3264 0.452148 43.3366 0.452148C54.3468 0.452148 54.3467 13.0352 65.3569 13.0352C76.367 13.0352 76.3671 0.452148 87.3773 0.452148C98.3875 0.452148 98.411 13.0352 109.421 13.0352" stroke="black" stroke-width="0.539374" stroke-miterlimit="10" class="aYQHfSMb_0"></path>
<path d="M-88.7617 20.8994C-77.7516 20.8994 -77.7516 33.4825 -66.7414 33.4825C-55.7313 33.4825 -55.7548 20.8994 -44.7446 20.8994C-33.7345 20.8994 -33.7345 33.4825 -22.7244 33.4825C-11.7142 33.4825 -11.7141 20.8994 -0.70395 20.8994C10.3062 20.8994 10.3062 33.4825 21.3163 33.4825C32.3265 33.4825 32.3264 20.8994 43.3366 20.8994C54.3468 20.8994 54.3467 33.4825 65.3569 33.4825C76.367 33.4825 76.3671 20.8994 87.3773 20.8994C98.3875 20.8994 98.411 33.4825 109.421 33.4825" stroke="black" stroke-width="0.539374" stroke-miterlimit="10" class="aYQHfSMb_1"></path>
<path d="M-88.7617 41.3467C-77.7516 41.3467 -77.7516 52.3568 -66.7414 52.3568C-55.7313 52.3568 -55.7548 41.3467 -44.7446 41.3467C-33.7345 41.3467 -33.7345 52.3568 -22.7244 52.3568C-11.7142 52.3568 -11.7141 41.3467 -0.70395 41.3467C10.3062 41.3467 10.3062 52.3568 21.3163 52.3568C32.3265 52.3568 32.3264 41.3467 43.3366 41.3467C54.3468 41.3467 54.3467 52.3568 65.3569 52.3568C76.367 52.3568 76.3671 41.3467 87.3773 41.3467C98.3875 41.3467 98.411 52.3568 109.421 52.3568" stroke="black" stroke-width="0.539374" stroke-miterlimit="10" class="aYQHfSMb_2"></path>
<style data-made-with="vivus-instant">.aYQHfSMb_0{stroke-dasharray:238 240;stroke-dashoffset:239;animation:aYQHfSMb_draw_0 7200ms linear 0ms infinite,aYQHfSMb_fade 7200ms linear 0ms infinite;}.aYQHfSMb_1{stroke-dasharray:238 240;stroke-dashoffset:239;animation:aYQHfSMb_draw_1 7200ms linear 0ms infinite,aYQHfSMb_fade 7200ms linear 0ms infinite;}.aYQHfSMb_2{stroke-dasharray:230 232;stroke-dashoffset:231;animation:aYQHfSMb_draw_2 7200ms linear 0ms infinite,aYQHfSMb_fade 7200ms linear 0ms infinite;}@keyframes aYQHfSMb_draw{100%{stroke-dashoffset:0;}}@keyframes aYQHfSMb_fade{0%{stroke-opacity:1;}94.44444444444444%{stroke-opacity:1;}100%{stroke-opacity:0;}}@keyframes aYQHfSMb_draw_0{11.11111111111111%{stroke-dashoffset: 239}38.88888888888889%{ stroke-dashoffset: 0;}100%{ stroke-dashoffset: 0;}}@keyframes aYQHfSMb_draw_1{18.055555555555554%{stroke-dashoffset: 239}45.83333333333333%{ stroke-dashoffset: 0;}100%{ stroke-dashoffset: 0;}}@keyframes aYQHfSMb_draw_2{25%{stroke-dashoffset: 231}52.77777777777778%{ stroke-dashoffset: 0;}100%{ stroke-dashoffset: 0;}}</style></svg>
